<svg preserveAspectRatio="none" overflow="visible" style="display: block;" width="16" height="16" viewBox="0 0 16 16" fill="none" xmlns="http://www.w3.org/2000/svg">
<g id="&#230;&#137;&#167;&#232;&#161;&#140;&#228;&#187;&#187;&#229;&#138;&#161;" clip-path="url(#clip0_0_21)">
<g id="Vector" filter="url(#filter0_di_0_21)">
<path d="M13.3812 3.24455H11.4561V5.38359H4.32595V3.24455H2.61472C2.36517 3.24455 2.18692 3.49411 2.18692 3.74366V14.3675C2.18692 14.6528 2.40082 14.8667 2.65038 14.8667H13.3099C13.5595 14.8667 13.7734 14.6528 13.7734 14.3675V3.74366C13.7734 3.45846 13.5595 3.24455 13.3099 3.24455H13.3812ZM11.6343 7.45133L7.46321 12.585C7.49886 12.6563 7.39191 12.6563 7.32061 12.6207L4.2903 10.1251C4.219 10.0895 4.219 9.98252 4.25465 9.91122L4.75376 9.26951C4.78941 9.19821 4.89636 9.19821 4.96767 9.23386L7.24931 11.159L10.8144 6.73832C10.85 6.63136 10.957 6.63136 11.0283 6.70267L11.5987 7.20177C11.7056 7.23742 11.7413 7.30873 11.6343 7.45133ZM9.7092 2.60284V2.17504C9.7092 1.78288 9.35269 1.53332 8.96054 1.53332H6.78585C6.39369 1.53332 6.03718 1.78288 6.03718 2.17504V2.60284H5.18157V4.74188H10.5648V2.60284H9.7092ZM7.89102 3.88627C7.46321 3.88627 7.1067 3.52976 7.1067 3.10195C7.1067 2.67414 7.46321 2.31764 7.89102 2.31764C8.31882 2.31764 8.67533 2.67414 8.67533 3.10195C8.67533 3.60106 8.31882 3.88627 7.89102 3.88627Z" fill="#0B88E7"/>
<path d="M13.3812 3.24455H11.4561V5.38359H4.32595V3.24455H2.61472C2.36517 3.24455 2.18692 3.49411 2.18692 3.74366V14.3675C2.18692 14.6528 2.40082 14.8667 2.65038 14.8667H13.3099C13.5595 14.8667 13.7734 14.6528 13.7734 14.3675V3.74366C13.7734 3.45846 13.5595 3.24455 13.3099 3.24455H13.3812ZM11.6343 7.45133L7.46321 12.585C7.49886 12.6563 7.39191 12.6563 7.32061 12.6207L4.2903 10.1251C4.219 10.0895 4.219 9.98252 4.25465 9.91122L4.75376 9.26951C4.78941 9.19821 4.89636 9.19821 4.96767 9.23386L7.24931 11.159L10.8144 6.73832C10.85 6.63136 10.957 6.63136 11.0283 6.70267L11.5987 7.20177C11.7056 7.23742 11.7413 7.30873 11.6343 7.45133ZM9.7092 2.60284V2.17504C9.7092 1.78288 9.35269 1.53332 8.96054 1.53332H6.78585C6.39369 1.53332 6.03718 1.78288 6.03718 2.17504V2.60284H5.18157V4.74188H10.5648V2.60284H9.7092ZM7.89102 3.88627C7.46321 3.88627 7.1067 3.52976 7.1067 3.10195C7.1067 2.67414 7.46321 2.31764 7.89102 2.31764C8.31882 2.31764 8.67533 2.67414 8.67533 3.10195C8.67533 3.60106 8.31882 3.88627 7.89102 3.88627Z" fill="url(#paint0_linear_0_21)" fill-opacity="0.34" style="mix-blend-mode:screen"/>
<path d="M13.3812 3.24455H11.4561V5.38359H4.32595V3.24455H2.61472C2.36517 3.24455 2.18692 3.49411 2.18692 3.74366V14.3675C2.18692 14.6528 2.40082 14.8667 2.65038 14.8667H13.3099C13.5595 14.8667 13.7734 14.6528 13.7734 14.3675V3.74366C13.7734 3.45846 13.5595 3.24455 13.3099 3.24455H13.3812ZM11.6343 7.45133L7.46321 12.585C7.49886 12.6563 7.39191 12.6563 7.32061 12.6207L4.2903 10.1251C4.219 10.0895 4.219 9.98252 4.25465 9.91122L4.75376 9.26951C4.78941 9.19821 4.89636 9.19821 4.96767 9.23386L7.24931 11.159L10.8144 6.73832C10.85 6.63136 10.957 6.63136 11.0283 6.70267L11.5987 7.20177C11.7056 7.23742 11.7413 7.30873 11.6343 7.45133ZM9.7092 2.60284V2.17504C9.7092 1.78288 9.35269 1.53332 8.96054 1.53332H6.78585C6.39369 1.53332 6.03718 1.78288 6.03718 2.17504V2.60284H5.18157V4.74188H10.5648V2.60284H9.7092ZM7.89102 3.88627C7.46321 3.88627 7.1067 3.52976 7.1067 3.10195C7.1067 2.67414 7.46321 2.31764 7.89102 2.31764C8.31882 2.31764 8.67533 2.67414 8.67533 3.10195C8.67533 3.60106 8.31882 3.88627 7.89102 3.88627Z" fill="url(#paint1_linear_0_21)" style="mix-blend-mode:soft-light"/>
<path d="M3.92617 3.64465V5.78332H11.8559V3.64465H13.31L13.3451 3.66223C13.3598 3.67644 13.3734 3.70133 13.3734 3.74329V14.3673C13.3734 14.451 13.3197 14.4669 13.31 14.4669H2.65078C2.64123 14.4669 2.58731 14.4512 2.58731 14.3673V3.74329C2.58735 3.72814 2.58998 3.71088 2.5961 3.69348C2.60232 3.67583 2.61087 3.66196 2.61856 3.65247C2.62165 3.64864 2.62447 3.64637 2.62637 3.64465H3.92617ZM10.8637 6.25598C10.6856 6.2758 10.5498 6.38277 10.474 6.52258L7.19473 10.589L5.22598 8.92786L5.18887 8.89758L5.14688 8.8761L5.06778 8.84387C4.98601 8.81632 4.89484 8.80341 4.80313 8.8136C4.69232 8.82591 4.53387 8.88092 4.43106 9.03235L3.93887 9.66516L3.91446 9.69739L3.89688 9.73254C3.84734 9.8317 3.82089 9.9531 3.83438 10.0753C3.84668 10.1861 3.90186 10.3446 4.05313 10.4474L7.0668 12.9298L7.10098 12.9581L7.142 12.9786C7.23109 13.0231 7.35807 13.0578 7.48867 13.0392C7.54721 13.0308 7.70238 12.9971 7.80215 12.8429C7.82289 12.8108 7.83537 12.7777 7.8461 12.7462L11.9447 7.70325L11.9545 7.69153C12.0216 7.60211 12.1366 7.42107 12.0873 7.19934C12.0458 7.01315 11.9181 6.91356 11.8168 6.86145L11.2914 6.40149L11.2895 6.40247C11.1884 6.31065 11.0392 6.23648 10.8637 6.25598ZM6.78555 1.93372H7.70547C7.14343 2.02417 6.70658 2.5162 6.70645 3.10168C6.70645 3.75041 7.2423 4.28625 7.89102 4.28625C8.19295 4.28625 8.49109 4.18474 8.71719 3.97278C8.94721 3.75705 9.07559 3.45196 9.07559 3.10168C9.07546 2.5162 8.6386 2.02417 8.07657 1.93372H8.96035C9.07526 1.93372 9.17138 1.97071 9.23086 2.01868C9.28433 2.06184 9.30896 2.11172 9.30899 2.17493V3.00305H10.1645V4.34192H5.58145V3.00305H6.43692V2.17493C6.43695 2.11167 6.46247 2.06186 6.51602 2.01868C6.57546 1.97082 6.6709 1.93378 6.78555 1.93372Z" stroke="url(#paint2_linear_0_21)" stroke-width="0.8"/>
</g>
</g>
<defs>
<filter id="filter0_di_0_21" x="-5.81308" y="-6.46668" width="27.5865" height="29.3333" filterUnits="userSpaceOnUse" color-interpolation-filters="sRGB">
<feFlood flood-opacity="0" result="BackgroundImageFix"/>
<feColorMatrix in="SourceAlpha" type="matrix" values="0 0 0 0 0 0 0 0 0 0 0 0 0 0 0 0 0 0 127 0" result="hardAlpha"/>
<feOffset/>
<feGaussianBlur stdDeviation="4"/>
<feComposite in2="hardAlpha" operator="out"/>
<feColorMatrix type="matrix" values="0 0 0 0 0.0115873 0 0 0 0 0.48932 0 0 0 0 1 0 0 0 0.61 0"/>
<feBlend mode="normal" in2="BackgroundImageFix" result="effect1_dropShadow_0_21"/>
<feBlend mode="normal" in="SourceGraphic" in2="effect1_dropShadow_0_21" result="shape"/>
<feColorMatrix in="SourceAlpha" type="matrix" values="0 0 0 0 0 0 0 0 0 0 0 0 0 0 0 0 0 0 127 0" result="hardAlpha"/>
<feOffset/>
<feGaussianBlur stdDeviation="2"/>
<feComposite in2="hardAlpha" operator="arithmetic" k2="-1" k3="1"/>
<feColorMatrix type="matrix" values="0 0 0 0 0.282353 0 0 0 0 0.87451 0 0 0 0 0.984314 0 0 0 1 0"/>
<feBlend mode="normal" in2="shape" result="effect2_innerShadow_0_21"/>
</filter>
<linearGradient id="paint0_linear_0_21" x1="7.98014" y1="7.64444" x2="14.0315" y2="12.903" gradientUnits="userSpaceOnUse">
<stop stop-color="white" stop-opacity="0"/>
<stop offset="0.0161035" stop-color="white"/>
<stop offset="0.605807" stop-color="white" stop-opacity="0"/>
</linearGradient>
<linearGradient id="paint1_linear_0_21" x1="4.60076" y1="4.3111" x2="9.07492" y2="8.68507" gradientUnits="userSpaceOnUse">
<stop stop-color="white"/>
<stop offset="1" stop-color="white" stop-opacity="0"/>
</linearGradient>
<linearGradient id="paint2_linear_0_21" x1="7.49738" y1="-1.24445" x2="14.1015" y2="10.2334" gradientUnits="userSpaceOnUse">
<stop stop-color="white"/>
<stop offset="1" stop-color="white" stop-opacity="0"/>
</linearGradient>
<clipPath id="clip0_0_21">
<rect width="16" height="16" fill="white"/>
</clipPath>
</defs>
</svg>
