<svg preserveAspectRatio="none" overflow="visible" style="display: block;" width="24" height="24" viewBox="0 0 24 24" fill="none" xmlns="http://www.w3.org/2000/svg">
<g id="&#230;&#138;&#149;&#232;&#191;&#144;&#230;&#151;&#165;&#230;&#156;&#159;">
<path id="Vector" d="M3.45485 9.17246V20.6006H20.5973V4.88666H17.74V5.60104C17.74 5.80945 17.6731 5.98051 17.5391 6.11447C17.4051 6.24844 17.2341 6.31542 17.0259 6.31542C16.8175 6.31542 16.6464 6.24844 16.5125 6.11447C16.3785 5.98051 16.3115 5.80945 16.3115 5.60104V4.88666H7.74041V5.60104C7.74041 5.80945 7.67342 5.98051 7.53946 6.11447C7.4055 6.24844 7.23444 6.31542 7.02603 6.31542C6.81761 6.31542 6.64655 6.24844 6.51259 6.11447C6.37863 5.98051 6.31164 5.80945 6.31164 5.60104V4.88666H3.45485V7.7437H20.5973V9.17222L3.45485 9.17246ZM7.74041 3.45838H16.3115V2.744C16.3115 2.53559 16.3785 2.36452 16.5125 2.23056C16.6464 2.0966 16.8175 2.02962 17.0259 2.02962C17.2343 2.02962 17.4054 2.0966 17.5393 2.23056C17.6733 2.36452 17.74 2.53559 17.74 2.744V3.45838H21.3115C21.5199 3.45838 21.6909 3.52536 21.8249 3.65932C21.9589 3.79328 22.0256 3.96435 22.0256 4.17276V21.3152C22.0256 21.5236 21.9586 21.6947 21.8249 21.8287C21.6909 21.9626 21.5199 22.0294 21.3115 22.0294H2.74047C2.53206 22.0294 2.36099 21.9624 2.22703 21.8287C2.09307 21.6947 2.02609 21.5236 2.02609 21.3152V4.17252C2.02609 3.96411 2.09307 3.79304 2.22703 3.65908C2.36099 3.52512 2.53206 3.45814 2.74047 3.45814H6.31189V2.74376C6.31189 2.53534 6.37887 2.36428 6.51283 2.23032C6.64679 2.09636 6.81786 2.02938 7.02627 2.02938C7.23468 2.02938 7.40574 2.09636 7.5397 2.23032C7.67367 2.36428 7.74065 2.53534 7.74065 2.74376V3.45838H7.74041ZM7.02603 12.0295H8.45454C8.66296 12.0295 8.83402 12.0965 8.96798 12.2302C9.10194 12.3642 9.16893 12.5352 9.16893 12.7436C9.16893 12.952 9.10194 13.1231 8.96798 13.2571C8.83402 13.391 8.66296 13.4578 8.45454 13.4578H7.02603C6.81761 13.4578 6.64655 13.3908 6.51259 13.2571C6.37863 13.1231 6.31164 12.952 6.31164 12.7436C6.31164 12.5352 6.37863 12.3642 6.51259 12.2302C6.64655 12.0965 6.81785 12.0295 7.02603 12.0295ZM7.02603 16.3151H8.45454C8.66296 16.3151 8.83402 16.382 8.96798 16.5158C9.10194 16.6497 9.16893 16.8208 9.16893 17.0292C9.16893 17.2376 9.10194 17.4087 8.96798 17.5426C8.83402 17.6766 8.66296 17.7433 8.45454 17.7433H7.02603C6.81761 17.7433 6.64655 17.6764 6.51259 17.5426C6.37863 17.4087 6.31164 17.2376 6.31164 17.0292C6.31164 16.8208 6.37863 16.6497 6.51259 16.5158C6.64655 16.382 6.81785 16.3151 7.02603 16.3151ZM11.3118 12.0295H12.7403C12.9488 12.0295 13.1198 12.0965 13.2538 12.2302C13.3877 12.3642 13.4547 12.5352 13.4547 12.7436C13.4547 12.952 13.3877 13.1231 13.2538 13.2571C13.1198 13.391 12.9488 13.4578 12.7403 13.4578H11.3118C11.1034 13.4578 10.9323 13.3908 10.7984 13.2571C10.6644 13.1231 10.5974 12.952 10.5974 12.7436C10.5974 12.5352 10.6644 12.3642 10.7984 12.2302C10.9323 12.0965 11.1034 12.0295 11.3118 12.0295ZM11.3118 16.3151H12.7403C12.9488 16.3151 13.1198 16.382 13.2538 16.5158C13.3877 16.6497 13.4547 16.8208 13.4547 17.0292C13.4547 17.2376 13.3877 17.4087 13.2538 17.5426C13.1198 17.6766 12.9488 17.7433 12.7403 17.7433H11.3118C11.1034 17.7433 10.9323 17.6764 10.7984 17.5426C10.6644 17.4087 10.5974 17.2376 10.5974 17.0292C10.5974 16.8208 10.6644 16.6497 10.7984 16.5158C10.9323 16.382 11.1034 16.3151 11.3118 16.3151ZM15.5974 12.0295H17.0259C17.2343 12.0295 17.4054 12.0965 17.5391 12.2302C17.6731 12.3642 17.74 12.5352 17.74 12.7436C17.74 12.952 17.6731 13.1231 17.5391 13.2571C17.4051 13.391 17.2341 13.4578 17.0259 13.4578H15.5974C15.389 13.4578 15.2179 13.3908 15.0839 13.2571C14.95 13.1231 14.883 12.952 14.883 12.7436C14.883 12.5352 14.95 12.3642 15.0839 12.2302C15.2179 12.0965 15.389 12.0295 15.5974 12.0295ZM15.5974 16.3151H17.0259C17.2343 16.3151 17.4054 16.382 17.5391 16.5158C17.6731 16.6497 17.74 16.8208 17.74 17.0292C17.74 17.2376 17.6731 17.4087 17.5391 17.5426C17.4051 17.6766 17.2341 17.7433 17.0259 17.7433H15.5974C15.389 17.7433 15.2179 17.6764 15.0839 17.5426C14.95 17.4087 14.883 17.2376 14.883 17.0292C14.883 16.8208 14.95 16.6497 15.0839 16.5158C15.2179 16.382 15.389 16.3151 15.5974 16.3151Z" fill="#DBFFFF"/>
</g>
</svg>
